<svg width="64" height="64" viewBox="0 0 64 64" fill="none" xmlns="http://www.w3.org/2000/svg">
  <defs>
    <linearGradient id="rc-bg" x1="0" y1="0" x2="64" y2="64" gradientUnits="userSpaceOnUse">
      <stop stop-color="#38bdf8"/>
      <stop offset="1" stop-color="#22c55e"/>
    </linearGradient>
  </defs>
  <rect width="64" height="64" rx="14" fill="url(#rc-bg)"/>
  <!-- Document -->
  <path d="M20 12h16l8 8v32a0 0 0 0 1 0 0H20a0 0 0 0 1 0 0V12z" fill="#ffffff"/>
  <path d="M36 12l8 8h-8v-8z" fill="#e2e8f0"/>
  <!-- Text lines -->
  <rect x="24" y="26" width="16" height="2.6" rx="1.3" fill="#94a3b8"/>
  <rect x="24" y="32" width="16" height="2.6" rx="1.3" fill="#94a3b8"/>
  <rect x="24" y="38" width="10" height="2.6" rx="1.3" fill="#94a3b8"/>
  <!-- Check badge -->
  <circle cx="42" cy="44" r="9" fill="#22c55e" stroke="#ffffff" stroke-width="2.5"/>
  <path d="M38 44l3 3 5-6" stroke="#ffffff" stroke-width="2.6" stroke-linecap="round" stroke-linejoin="round"/>
</svg>
